<?xml version="1.0" encoding="utf-8"?>
<!-- Generator: Adobe Illustrator 22.0.1, SVG Export Plug-In . SVG Version: 6.00 Build 0)  -->
<svg version="1.1" id="Layer_1" xmlns="http://www.w3.org/2000/svg" xmlns:xlink="http://www.w3.org/1999/xlink" x="0px" y="0px"
	 viewBox="0 0 841.9 595.3" style="enable-background:new 0 0 841.9 595.3;" xml:space="preserve">
<style type="text/css">
	.st0{fill:#FFFFFF;}
</style>
<path class="st0" d="M387.3,238.6h-59.8v10.7h22.7v55.1h12.7v-55.1h13.7C382.5,249.3,387.3,244.5,387.3,238.6z M301.9,250.9v33.1
	l-38.3-45.5h-11.6v65.8h12.4v-46.8l39.4,46.8h10.5v-65.8C307.4,238.6,301.9,244.1,301.9,250.9z M203.3,238.1c-3.6,0-6.8,2-8.3,5.3
	l-29,61h12.9l24.2-52.4l24.2,52.4h13.3l-29-61C210,240.2,206.8,238.1,203.3,238.1z M419,238.1c-3.6,0-6.8,2-8.3,5.3l-29,61h12.9
	l24.2-52.4l24.2,52.4h13.3l-29-61C425.8,240.2,422.5,238.1,419,238.1z M168.3,238.6H115v65.8h12.6v-55.2h40.6V238.6z M134.5,277.6
	h12.9c5.8,0,10.5-4.7,10.5-10.5h-23.4V277.6z M495,266.2c-13.7-3-17-5.3-17-10.4c0-4.4,4.3-7.9,11.6-7.9c4.2,0,8.4,1,12.5,2.8
	c4.3,1.9,9.3,0.8,12.2-2.9l1.5-1.9c-7.3-5.4-15.5-8.3-25.9-8.3c-14.2,0-24.4,7.7-24.4,19.2c0,12.2,8.6,16.3,23.8,19.7
	c13.3,2.8,16.1,5.4,16.1,10.1c0,5.1-4.9,8.4-12.7,8.4c-8.9,0-15.7-3.1-22.6-8.5l-7.6,8.3c8.6,7,18.9,10.5,29.8,10.5
	c15,0,25.5-7.3,25.5-19.7C517.9,274.6,510.1,269.6,495,266.2z M717.3,286.3c-6.1,5.3-11.7,8.5-20.5,8.5c-13.7,0-23.6-10.5-23.6-23.5
	c0-13,9.9-23.3,23.6-23.3c5.3,0,9.7,1.4,13.7,3.7c4,2.3,9.1,1.6,12.3-1.8l2.1-2.2c-6.8-6-14.8-10.2-28-10.2
	c-21.7,0-36.9,15.3-36.9,34.1c0,19,15.5,33.9,36.4,33.9c13.4,0,21.5-4.5,29-11.6L717.3,286.3z M629.1,276.7
	c5.8,0,10.5-4.7,10.5-10.5h-23.4v10.5H629.1z M526.1,249.3h22.7v55.1h12.7v-55.1h13.7c5.9,0,10.7-4.8,10.7-10.7h-59.8V249.3z
	 M596.7,304.4h53.2v-10.5h-40.6v-44.7h40.6v-10.5h-53.2V304.4z"/>
<g>
	<g>
		<path class="st0" d="M358.3,331.7v2.1h-11.1v6.6h9.9v2h-9.9v6.8h11.4v2.1H345v-19.6H358.3z"/>
		<path class="st0" d="M376.6,342.2v9.1h-2.2v-8.5c0-2.6-1.6-4.2-4.2-4.2c-2.9,0-4.7,2-5,4.8v7.9h-2.2v-14.7h2.2v3.2
			c1-2.2,3-3.3,5.7-3.3C374.5,336.5,376.6,338.6,376.6,342.2z"/>
		<path class="st0" d="M394.4,336.5v13.2c0,4.3-2.9,7-7.4,7c-2.3,0-4.3-0.8-6-2.2l1-1.6c1.5,1.2,3,1.8,5,1.9c3.2,0,5.3-2,5.3-5.1
			v-2.2c-1,2-2.9,3.1-5.4,3.1c-4,0-6.7-2.9-6.7-7.1c0-4.1,2.7-7,6.7-7.1c2.5,0,4.4,1.1,5.5,3.1v-3H394.4z M392.2,343.6
			c0-3.1-2.1-5.3-5-5.3c-3,0-5,2.2-5.1,5.3c0,3.1,2.1,5.3,5.1,5.3C390.1,348.8,392.2,346.6,392.2,343.6z"/>
		<path class="st0" d="M408.6,351.3V349c-1.2,1.6-3.1,2.4-5.4,2.4c-3.1,0-5-1.9-5-4.5c0-2.6,2-4.2,5.5-4.2h4.8v-0.9
			c0-2.2-1.3-3.5-3.9-3.5c-1.6,0-3.1,0.6-4.7,1.7l-0.9-1.5c1.9-1.3,3.5-2,6-2c3.6,0,5.7,1.9,5.7,5.1l0,9.7H408.6z M408.6,346.2v-1.8
			H404c-2.5,0-3.8,0.8-3.8,2.4c0,1.6,1.3,2.7,3.4,2.7C406.1,349.5,408,348.3,408.6,346.2z"/>
		<path class="st0" d="M428.6,336.5v13.2c0,4.3-2.9,7-7.4,7c-2.3,0-4.3-0.8-6-2.2l1-1.6c1.5,1.2,3,1.8,5,1.9c3.2,0,5.3-2,5.3-5.1
			v-2.2c-1,2-2.9,3.1-5.4,3.1c-4,0-6.7-2.9-6.7-7.1c0-4.1,2.7-7,6.7-7.1c2.5,0,4.4,1.1,5.5,3.1v-3H428.6z M426.4,343.6
			c0-3.1-2.1-5.3-5-5.3c-3,0-5,2.2-5.1,5.3c0,3.1,2.1,5.3,5.1,5.3C424.3,348.8,426.4,346.6,426.4,343.6z"/>
		<path class="st0" d="M436.1,332.3c0,0.8-0.6,1.5-1.4,1.5c-0.8,0-1.4-0.6-1.4-1.5c0-0.9,0.6-1.5,1.4-1.5
			C435.5,330.8,436.1,331.4,436.1,332.3z M435.8,336.5v14.7h-2.2v-14.7H435.8z"/>
		<path class="st0" d="M454.7,342.2v9.1h-2.2v-8.5c0-2.6-1.6-4.2-4.2-4.2c-2.9,0-4.7,2-5,4.8v7.9h-2.2v-14.7h2.2v3.2
			c1-2.2,3-3.3,5.7-3.3C452.7,336.5,454.7,338.6,454.7,342.2z"/>
		<path class="st0" d="M472.6,336.5v13.2c0,4.3-2.9,7-7.4,7c-2.3,0-4.3-0.8-6-2.2l1-1.6c1.5,1.2,3,1.8,5,1.9c3.2,0,5.3-2,5.3-5.1
			v-2.2c-1,2-2.9,3.1-5.4,3.1c-4,0-6.7-2.9-6.7-7.1c0-4.1,2.7-7,6.7-7.1c2.5,0,4.4,1.1,5.5,3.1v-3H472.6z M470.4,343.6
			c0-3.1-2.1-5.3-5-5.3c-3,0-5,2.2-5.1,5.3c0,3.1,2.1,5.3,5.1,5.3C468.3,348.8,470.4,346.6,470.4,343.6z"/>
		<path class="st0" d="M498.9,331.7v2.1h-10.2v7h9.2v2h-9.2v8.5h-2.2v-19.6H498.9z"/>
		<path class="st0" d="M511.2,351.3V349c-1.2,1.6-3.1,2.4-5.4,2.4c-3.1,0-5-1.9-5-4.5c0-2.6,2-4.2,5.5-4.2h4.8v-0.9
			c0-2.2-1.3-3.5-3.9-3.5c-1.6,0-3.1,0.6-4.7,1.7l-0.9-1.5c1.9-1.3,3.5-2,6-2c3.6,0,5.7,1.9,5.7,5.1l0,9.7H511.2z M511.2,346.2v-1.8
			h-4.6c-2.5,0-3.8,0.8-3.8,2.4c0,1.6,1.3,2.7,3.4,2.7C508.7,349.5,510.6,348.3,511.2,346.2z"/>
		<path class="st0" d="M531.8,342.2v9.1h-2.2v-8.5c0-2.6-1.6-4.2-4.2-4.2c-2.9,0-4.7,2-5,4.8v7.9h-2.2v-14.7h2.2v3.2
			c1-2.2,3-3.3,5.7-3.3C529.7,336.5,531.8,338.6,531.8,342.2z"/>
		<path class="st0" d="M558,331.7v2.1h-6.4v17.5h-2.2v-17.5h-6.4v-2.1H558z"/>
		<path class="st0" d="M571.7,344.7h-12c0.4,2.9,2.5,4.8,5.3,4.8c1.8,0,3.4-0.7,4.6-1.9l1.2,1.3c-1.4,1.5-3.5,2.4-5.9,2.4
			c-4.3,0-7.3-3.1-7.3-7.4c0-4.4,3-7.4,7.3-7.4C569.5,336.5,571.9,339.7,571.7,344.7z M569.7,343c-0.1-2.9-2-4.7-4.9-4.7
			c-2.8,0-4.8,1.8-5.2,4.7H569.7z"/>
		<path class="st0" d="M581.4,338.4c-3.1,0-5.2,2.2-5.2,5.5c0,3.3,2.2,5.5,5.2,5.5c1.9,0,3.5-0.7,4.6-1.9l1.3,1.3
			c-1.3,1.6-3.4,2.5-5.9,2.5c-4.3,0-7.3-3.1-7.3-7.4c0-4.4,3.1-7.4,7.3-7.4c2.4,0,4.3,0.8,5.7,2.2l-1.2,1.5
			C584.7,339.1,583.2,338.4,581.4,338.4z"/>
		<path class="st0" d="M605,342.2v9.1h-2.2v-8.5c0-2.6-1.6-4.2-4.2-4.2c-3.1,0-5,2.3-5,5.5v7.2h-2.2v-20.8h2.2v9.4
			c1-2.3,3-3.4,5.7-3.4C602.9,336.5,605,338.6,605,342.2z"/>
		<path class="st0" d="M623.5,342.2v9.1h-2.2v-8.5c0-2.6-1.6-4.2-4.2-4.2c-2.9,0-4.7,2-5,4.8v7.9H610v-14.7h2.2v3.2
			c1-2.2,3-3.3,5.7-3.3C621.4,336.5,623.5,338.6,623.5,342.2z"/>
		<path class="st0" d="M641.9,343.9c0,4.4-3.1,7.5-7.5,7.5c-4.4,0-7.5-3.1-7.5-7.5c0-4.4,3.1-7.4,7.5-7.4
			C638.8,336.5,641.9,339.5,641.9,343.9z M629.2,343.9c0,3.3,2.2,5.5,5.3,5.5c3.1,0,5.3-2.2,5.3-5.5c0-3.2-2.2-5.5-5.3-5.5
			C631.4,338.4,629.2,340.7,629.2,343.9z"/>
		<path class="st0" d="M648.2,330.5v20.8H646v-20.8H648.2z"/>
		<path class="st0" d="M667.3,343.9c0,4.4-3.1,7.5-7.5,7.5c-4.4,0-7.5-3.1-7.5-7.5c0-4.4,3.1-7.4,7.5-7.4
			C664.1,336.5,667.3,339.5,667.3,343.9z M654.5,343.9c0,3.3,2.2,5.5,5.3,5.5c3.1,0,5.3-2.2,5.3-5.5c0-3.2-2.2-5.5-5.3-5.5
			C656.7,338.4,654.5,340.7,654.5,343.9z"/>
		<path class="st0" d="M684.1,336.5v13.2c0,4.3-2.9,7-7.4,7c-2.3,0-4.3-0.8-6-2.2l1-1.6c1.5,1.2,3,1.8,5,1.9c3.2,0,5.3-2,5.3-5.1
			v-2.2c-1,2-2.9,3.1-5.4,3.1c-4,0-6.7-2.9-6.7-7.1c0-4.1,2.7-7,6.7-7.1c2.5,0,4.4,1.1,5.5,3.1v-3H684.1z M681.9,343.6
			c0-3.1-2.1-5.3-5-5.3c-3,0-5,2.2-5.1,5.3c0,3.1,2.1,5.3,5.1,5.3C679.8,348.8,681.9,346.6,681.9,343.6z"/>
		<path class="st0" d="M691.6,332.3c0,0.8-0.6,1.5-1.4,1.5c-0.8,0-1.4-0.6-1.4-1.5c0-0.9,0.6-1.5,1.4-1.5
			C691,330.8,691.6,331.4,691.6,332.3z M691.3,336.5v14.7h-2.2v-14.7H691.3z"/>
		<path class="st0" d="M709.4,344.7h-12c0.4,2.9,2.5,4.8,5.3,4.8c1.8,0,3.4-0.7,4.6-1.9l1.2,1.3c-1.4,1.5-3.5,2.4-5.9,2.4
			c-4.3,0-7.3-3.1-7.3-7.4c0-4.4,3-7.4,7.3-7.4C707.3,336.5,709.6,339.7,709.4,344.7z M707.5,343c-0.1-2.9-2-4.7-4.9-4.7
			c-2.8,0-4.8,1.8-5.2,4.7H707.5z"/>
		<path class="st0" d="M717.1,338.3c-1.7,0-2.9,0.6-2.9,2c0,3.3,8.2,1.6,8.2,6.9c0,2.9-2.6,4.2-5.4,4.2c-2.1,0-4.3-0.7-5.7-2.1
			l0.8-1.6c1.3,1.2,3.2,1.9,4.9,1.9c1.7,0,3.1-0.7,3.2-2.2c0.1-3.6-8.2-1.8-8.1-7c0-2.8,2.4-4,5.1-4c1.8,0,3.5,0.5,4.7,1.3l-0.8,1.7
			C719.9,338.7,718.4,338.3,717.1,338.3z"/>
	</g>
</g>
</svg>
